<svg width="106" height="106" viewBox="0 0 106 106" fill="none" xmlns="http://www.w3.org/2000/svg">
<g filter="url(#filter0_d_9_84)">
<path fill-rule="evenodd" clip-rule="evenodd" d="M52.0283 24.5699C52.4678 24.2232 70.8433 9.92869 82.9892 24.0112C89.6583 31.7404 89.093 39.7633 86.6197 47.6183L77.9144 72.557C75.3682 81.2291 73.553 83.9079 69.0921 87.6731C66.4465 89.9101 63.4609 86.0477 60.3184 81.9822C57.5955 78.4599 54.7556 74.7874 51.9179 74.7963C49.0316 74.8051 46.1453 78.4842 43.3849 82.0043C40.2027 86.0632 37.1839 89.9123 34.5229 87.6731C29.15 83.1504 26.7937 76.903 24.3292 66.875C23.8544 64.9449 23.1345 62.6284 22.3373 60.0733C19.0027 49.3651 14.3608 34.4677 21.1669 26.2041C29.574 15.9972 40.015 14.3542 51.9157 24.4882L52.0261 24.5699H52.0283ZM46.1542 25.6167C42.0378 22.79 38.5354 21.889 35.6204 22.1187C32.0407 22.3991 28.3197 24.4661 24.5788 29.0109C21.7609 32.4294 21.476 38.202 22.9932 45.7456C23.7153 49.3386 24.7709 52.9757 25.8331 56.4318C26.0605 57.1782 26.2946 57.9246 26.5243 58.6644C27.3303 61.2481 28.1077 63.7458 28.6178 65.8194C30.8725 75.0016 32.8357 79.9351 36.3933 83.411C37.1287 82.7264 38.0562 81.6311 39.2863 80.0742L39.8825 79.3145C41.1412 77.7091 42.6319 75.8033 44.1534 74.2795C45.7699 72.6652 48.4398 70.3884 51.9047 70.3796C55.385 70.3686 58.0482 72.6807 59.6316 74.2861C61.1311 75.8077 62.6018 77.7113 63.8429 79.3189L64.4325 80.0808C65.6361 81.6266 66.5481 82.722 67.2702 83.4044C68.699 82.1103 69.6265 81.0304 70.4282 79.6877C71.4661 77.9542 72.4311 75.5515 73.6744 71.3137L73.7429 71.1017L82.426 46.2293C83.5611 42.6076 84.1375 39.3017 83.8394 36.1946C83.5435 33.1692 82.3973 30.0841 79.6458 26.8953C75.0878 21.6086 69.4874 21.5291 64.2007 23.1654C61.5396 23.9914 59.1524 25.2192 57.4034 26.2704C56.7453 26.6634 56.1932 27.0234 55.7648 27.3171L64.2448 33.5534C64.7169 33.9002 65.0319 34.4202 65.1205 34.9992C65.2091 35.5782 65.0641 36.1686 64.7174 36.6407C64.3707 37.1128 63.8506 37.4277 63.2717 37.5164C62.6927 37.605 62.1022 37.46 61.6302 37.1133L49.65 28.302C49.4825 28.1958 49.3224 28.0785 49.1707 27.9509L46.6135 26.0716C46.4388 25.9434 46.2841 25.7901 46.1542 25.6167V25.6167ZM35.6204 84.0161L35.627 84.0116L35.6182 84.0161H35.6204Z" fill="#2A99EA"/>
</g>
<defs>
<filter id="filter0_d_9_84" x="8.83366" y="17.6665" width="88.3323" height="88.3334" filterUnits="userSpaceOnUse" color-interpolation-filters="sRGB">
<feFlood flood-opacity="0" result="BackgroundImageFix"/>
<feColorMatrix in="SourceAlpha" type="matrix" values="0 0 0 0 0 0 0 0 0 0 0 0 0 0 0 0 0 0 127 0" result="hardAlpha"/>
<feOffset dy="8.83333"/>
<feGaussianBlur stdDeviation="4.41667"/>
<feComposite in2="hardAlpha" operator="out"/>
<feColorMatrix type="matrix" values="0 0 0 0 0 0 0 0 0 0 0 0 0 0 0 0 0 0 0.25 0"/>
<feBlend mode="normal" in2="BackgroundImageFix" result="effect1_dropShadow_9_84"/>
<feBlend mode="normal" in="SourceGraphic" in2="effect1_dropShadow_9_84" result="shape"/>
</filter>
</defs>
</svg>
